<svg xmlns="http://www.w3.org/2000/svg" width="21.599" height="21.515" viewBox="0 0 21.599 21.515">
  <g id="crown" transform="translate(-1.164 -1.235)">
    <path id="Path_36305" data-name="Path 36305" d="M16.7,18.98H7.3a1.18,1.18,0,0,1-1.03-.73L2.13,6.67c-.59-1.66.1-2.17,1.52-1.15l3.9,2.79A1.054,1.054,0,0,0,9.22,7.8l1.76-4.69c.56-1.5,1.49-1.5,2.05,0L14.79,7.8a1.046,1.046,0,0,0,1.66.51L20.11,5.7c1.56-1.12,2.31-.55,1.67,1.26L17.74,18.27A1.221,1.221,0,0,1,16.7,18.98Z" fill="none" stroke="#000" stroke-linecap="round" stroke-linejoin="round" stroke-width="1.5"/>
    <path id="Path_36306" data-name="Path 36306" d="M6.5,22h11" fill="none" stroke="#000" stroke-linecap="round" stroke-linejoin="round" stroke-width="1.5"/>
    <path id="Path_36307" data-name="Path 36307" d="M9.5,14h5" fill="none" stroke="#000" stroke-linecap="round" stroke-linejoin="round" stroke-width="1.5"/>
  </g>
</svg>
