<svg xmlns="http://www.w3.org/2000/svg" width="12.042" height="17.004" viewBox="0 0 12.042 17.004">
  <g id="huobi-token-_ht_" data-name="huobi-token-(ht)" transform="translate(-4.468 -1.522)">
    <path id="Path_36358" data-name="Path 36358" d="M15.362,10s-.16.8-2.563,4.005c-2.323,3.044,1.041,5.287,1.442,5.607h.08C14.8,19.212,20.889,15.367,15.362,10Z" transform="translate(-1.669 -1.587)" fill="none" stroke="#fff" stroke-linecap="round" stroke-linejoin="round" stroke-width="1"/>
    <path id="Path_36359" data-name="Path 36359" d="M12.048,6.651a7.849,7.849,0,0,0-1.442-4.486.421.421,0,0,0-.721.16,20.627,20.627,0,0,1-3.6,6.809,5.563,5.563,0,0,0,2.563,8.811c1.522.4-.4-.8-.641-3.284C7.963,11.538,12.048,9.215,12.048,6.651Z" transform="translate(0)" fill="none" stroke="#fff" stroke-linecap="round" stroke-linejoin="round" stroke-width="1"/>
  </g>
</svg>
