<svg xmlns="http://www.w3.org/2000/svg" width="130.213" height="48.342" viewBox="0 0 130.213 48.342">
  <g id="Group_5968" data-name="Group 5968" transform="translate(-139.669 -682.12)">
    <g id="Group_5956" data-name="Group 5956" transform="translate(139.669 682.12)">
      <path id="Path_36203" data-name="Path 36203" d="M165.444,684.892c-5.463,7.752-12.919,14.756-21.891,18.129a31.152,31.152,0,0,1-3.885,1.127c7.6-2.559,13.744-8.19,18.488-14.5a50.892,50.892,0,0,0,4.211-6.544,1.781,1.781,0,1,1,3.077,1.785Z" transform="translate(-139.669 -682.124)" fill="#fff"/>
      <path id="Path_36204" data-name="Path 36204" d="M240.744,683.1a52.275,52.275,0,0,0,12.335,15.152,32.846,32.846,0,0,0,10.364,5.889,35.992,35.992,0,0,1-14.482-7.205,56.364,56.364,0,0,1-11.3-12.058,1.781,1.781,0,1,1,3.081-1.778Z" transform="translate(-218.884 -682.12)" fill="#fff"/>
      <path id="Path_36205" data-name="Path 36205" d="M191.887,741.553l7.958.7.249.022c.077.007.188.015.2.02a.93.93,0,0,0,.964-.7c.183-.816.834-4.231,1.014-5.108l.114,3.994a4.354,4.354,0,0,1-.243,2.249,2.346,2.346,0,0,1-1.718,1.23l-.539.074-7.92,1.076a1.788,1.788,0,1,1-.084-3.556Z" transform="translate(-180.441 -726.213)" fill="#fff"/>
      <path id="Path_36206" data-name="Path 36206" d="M269.48,745.109l-7.92-1.076a3.575,3.575,0,0,1-1.258-.307,2.377,2.377,0,0,1-1.274-2.122c.009-.017.024-1.062.032-1.123l.114-3.994.772,3.92c.013.065.213,1.083.217,1.1a1.026,1.026,0,0,0,.749.785,4.087,4.087,0,0,0,.693-.04l7.958-.7a1.788,1.788,0,1,1-.084,3.556Z" transform="translate(-236.45 -726.213)" fill="#fff"/>
      <path id="Path_36207" data-name="Path 36207" d="M261.661,751c-5.891,2.757-10.544,7.673-13.813,13.266a45.641,45.641,0,0,0-5.6,19.206c-.235-12.052,4.026-24.619,13.446-32.567a25.807,25.807,0,0,1,4.5-3.147l.2-.105A1.8,1.8,0,1,1,261.661,751Z" transform="translate(-222.841 -735.127)" fill="#fff"/>
      <path id="Path_36208" data-name="Path 36208" d="M165.6,747.777c9.233,5.272,15.151,15.276,17.06,25.533a51.732,51.732,0,0,1,.885,10.18c-.727-9.952-4.358-20.005-11.624-26.993a28.149,28.149,0,0,0-7.784-5.478,1.8,1.8,0,0,1-1.317-2.179,1.826,1.826,0,0,1,2.78-1.063Z" transform="translate(-158.396 -735.149)" fill="#fff"/>
    </g>
    <g id="Group_5959" data-name="Group 5959" transform="translate(171.698 706.674)">
      <g id="Group_5957" data-name="Group 5957" transform="translate(0 0)">
        <path id="Path_36209" data-name="Path 36209" d="M308.189,812.234a3.809,3.809,0,0,1,3.8,3.8V822.7a3.813,3.813,0,0,1-3.8,3.819h-6.92v-9.135h3.207v5.929h3.1a1.2,1.2,0,0,0,1.2-1.2v-5.464a1.189,1.189,0,0,0-1.2-1.2h-6.308v-3.207Z" transform="translate(-301.269 -812.213)" fill="#fff"/>
        <path id="Path_36210" data-name="Path 36210" d="M376.042,812.234V822.91a3.62,3.62,0,0,1-3.608,3.608h-3.523a3.62,3.62,0,0,1-3.608-3.608V812.234h3.207v9.874a1.215,1.215,0,0,0,1.2,1.2h1.921a1.2,1.2,0,0,0,1.2-1.2v-9.874Z" transform="translate(-353.191 -812.213)" fill="#fff"/>
        <path id="Path_36211" data-name="Path 36211" d="M435.924,826.517h-3.207v-11.1h-3.27v-3.186h9.725v3.186h-3.249Z" transform="translate(-405.201 -812.213)" fill="#fff"/>
        <path id="Path_36212" data-name="Path 36212" d="M498.978,822.608a3.817,3.817,0,0,1-3.818,3.819h-6.92V823.22h6.329a1.215,1.215,0,0,0,1.2-1.2V820.5h-2.363a5.177,5.177,0,0,1-5.168-5.169v-3.207h3.207v3.207a1.943,1.943,0,0,0,.57,1.393,2.034,2.034,0,0,0,1.392.569h2.363v-5.169l3.207.021Z" transform="translate(-452.873 -812.122)" fill="#fff"/>
        <path id="Path_36213" data-name="Path 36213" d="M592.216,826.517h-3.207V815.441h-3.27v-3.207h9.725v3.207h-3.249Z" transform="translate(-531.93 -812.213)" fill="#fff"/>
        <path id="Path_36214" data-name="Path 36214" d="M649.992,815.329v7.891h2.257v3.207h-7.722V823.22h2.257v-7.891h-2.257v-3.207h7.722v3.207Z" transform="translate(-579.598 -812.122)" fill="#fff"/>
        <path id="Path_36215" data-name="Path 36215" d="M705.719,812.234v14.283h-3.207v-7.891l-3.291,6.583-3.291-6.583v7.891h-3.207V812.234h3.586l2.912,5.823,2.911-5.823Z" transform="translate(-618.677 -812.213)" fill="#fff"/>
        <path id="Path_36216" data-name="Path 36216" d="M778.551,815.441h-6.54v1.941h4.536v3.207h-4.536v2.722h6.54v3.207H768.8V812.234h9.747Z" transform="translate(-680.367 -812.213)" fill="#fff"/>
      </g>
      <g id="Group_5958" data-name="Group 5958" transform="translate(0 17.767)">
        <path id="Path_36217" data-name="Path 36217" d="M304.457,906.406v.489h-2.6v2.2h2.192v.489h-2.192V912.3h-.59v-5.895Z" transform="translate(-301.269 -906.339)" fill="#fff"/>
        <path id="Path_36218" data-name="Path 36218" d="M392.118,906.406V912.3h-.59v-5.895Z" transform="translate(-374.455 -906.339)" fill="#fff"/>
        <path id="Path_36219" data-name="Path 36219" d="M470.121,906.406v.489h-1.636V912.3h-.59V906.9H466.25v-.489Z" transform="translate(-435.043 -906.339)" fill="#fff"/>
        <path id="Path_36220" data-name="Path 36220" d="M552.572,912.3h-.59l-3.263-4.958V912.3h-.59v-5.895h.59l3.263,4.95v-4.95h.59Z" transform="translate(-501.433 -906.339)" fill="#fff"/>
        <path id="Path_36221" data-name="Path 36221" d="M635.723,906.851v2.2h2.235v.489h-2.235v2.235h2.488v.489h-3.078v-5.9h3.078v.489Z" transform="translate(-571.98 -906.303)" fill="#fff"/>
        <path id="Path_36222" data-name="Path 36222" d="M717.351,911.869a1.674,1.674,0,0,1-.7-.565,1.481,1.481,0,0,1-.27-.81h.624a1.186,1.186,0,0,0,.379.755,1.37,1.37,0,0,0,.987.325,1.386,1.386,0,0,0,.948-.308.994.994,0,0,0,.35-.78.923.923,0,0,0-.194-.612,1.189,1.189,0,0,0-.48-.345,7.415,7.415,0,0,0-.793-.249,6.922,6.922,0,0,1-.936-.312,1.485,1.485,0,0,1-.59-.472,1.4,1.4,0,0,1-.244-.869,1.44,1.44,0,0,1,.236-.813,1.582,1.582,0,0,1,.666-.561,2.291,2.291,0,0,1,.986-.2,2.055,2.055,0,0,1,1.32.4,1.506,1.506,0,0,1,.578,1.033h-.641a1.059,1.059,0,0,0-.4-.645,1.567,1.567,0,0,0-1.8,0,.934.934,0,0,0-.354.771.891.891,0,0,0,.194.6,1.236,1.236,0,0,0,.485.346,7.251,7.251,0,0,0,.788.253,7.091,7.091,0,0,1,.928.316,1.52,1.52,0,0,1,.6.476,1.386,1.386,0,0,1,.244.86,1.52,1.52,0,0,1-.219.784,1.6,1.6,0,0,1-.649.6,2.172,2.172,0,0,1-1.029.228A2.441,2.441,0,0,1,717.351,911.869Z" transform="translate(-637.864 -906.05)" fill="#fff"/>
        <path id="Path_36223" data-name="Path 36223" d="M800.745,911.869a1.674,1.674,0,0,1-.7-.565,1.479,1.479,0,0,1-.27-.81h.624a1.184,1.184,0,0,0,.379.755,1.37,1.37,0,0,0,.987.325,1.387,1.387,0,0,0,.948-.308.994.994,0,0,0,.35-.78.923.923,0,0,0-.194-.612,1.192,1.192,0,0,0-.48-.345,7.425,7.425,0,0,0-.793-.249,6.915,6.915,0,0,1-.936-.312,1.485,1.485,0,0,1-.59-.472,1.4,1.4,0,0,1-.244-.869,1.442,1.442,0,0,1,.236-.813,1.581,1.581,0,0,1,.666-.561,2.291,2.291,0,0,1,.986-.2,2.055,2.055,0,0,1,1.32.4,1.505,1.505,0,0,1,.578,1.033h-.641a1.06,1.06,0,0,0-.4-.645,1.567,1.567,0,0,0-1.8,0,.934.934,0,0,0-.354.771.892.892,0,0,0,.194.6,1.237,1.237,0,0,0,.485.346,7.256,7.256,0,0,0,.788.253,7.085,7.085,0,0,1,.928.316,1.523,1.523,0,0,1,.6.476,1.386,1.386,0,0,1,.244.86,1.521,1.521,0,0,1-.219.784,1.6,1.6,0,0,1-.649.6,2.17,2.17,0,0,1-1.029.228A2.441,2.441,0,0,1,800.745,911.869Z" transform="translate(-705.483 -906.05)" fill="#fff"/>
      </g>
    </g>
  </g>
</svg>
