<svg xmlns="http://www.w3.org/2000/svg" width="182" height="223.105" viewBox="0 0 182 223.105">
  <g id="Group_5990" data-name="Group 5990" transform="translate(-97 -308.813)">
    <g id="Group_5956" data-name="Group 5956" transform="translate(110 308.813)">
      <path id="Path_36203" data-name="Path 36203" d="M229.806,691.8c-19.1,27.109-45.177,51.6-76.552,63.4a108.952,108.952,0,0,1-13.586,3.943c26.563-8.948,48.062-28.639,64.652-50.7a177.973,177.973,0,0,0,14.725-22.886c4.232-7.61,15.272-1.257,10.76,6.241Z" transform="translate(-139.669 -682.121)" fill="#fff"/>
      <path id="Path_36204" data-name="Path 36204" d="M249.185,685.559a182.8,182.8,0,0,0,43.136,52.988,114.862,114.862,0,0,0,36.242,20.594c-18.626-4.039-35.759-13.431-50.643-25.2a197.1,197.1,0,0,1-39.509-42.168c-4.461-7.46,6.518-13.839,10.775-6.217Z" transform="translate(-172.129 -682.12)" fill="#fff"/>
      <path id="Path_36205" data-name="Path 36205" d="M196.717,754.2l27.829,2.455.87.077c.268.026.657.053.714.07a3.252,3.252,0,0,0,3.372-2.455c.64-2.854,2.917-14.795,3.547-17.863l.4,13.966c.028,2.532.5,5.563-.85,7.865a8.2,8.2,0,0,1-6.007,4.3l-1.885.258-27.7,3.763c-9.183.74-9.532-12.728-.292-12.435Z" transform="translate(-156.51 -700.264)" fill="#fff"/>
      <path id="Path_36206" data-name="Path 36206" d="M295.578,766.638l-27.7-3.763a12.5,12.5,0,0,1-4.4-1.072,8.311,8.311,0,0,1-4.454-7.422c.031-.059.085-3.715.112-3.929l.4-13.966,2.7,13.709c.047.226.744,3.788.759,3.855a3.587,3.587,0,0,0,2.618,2.746,14.281,14.281,0,0,0,2.424-.139l27.829-2.455c9.207-.309,8.923,13.162-.293,12.435Z" transform="translate(-179.644 -700.264)" fill="#fff"/>
      <path id="Path_36207" data-name="Path 36207" d="M310.146,759.863c-20.6,9.64-36.872,26.832-48.3,46.39-11.7,20.351-17.744,43.724-19.566,67.163-.821-42.148,14.079-86.092,47.02-113.887a90.241,90.241,0,0,1,15.735-11l.711-.369c8.511-3.826,13.343,8.958,4.4,11.706Z" transform="translate(-173.781 -703.23)" fill="#fff"/>
      <path id="Path_36208" data-name="Path 36208" d="M172.671,748.534c32.289,18.436,52.985,53.421,59.66,89.29a180.912,180.912,0,0,1,3.1,35.6c-2.541-34.8-15.241-69.959-40.65-94.4-8.069-7.7-17.042-14.594-27.219-19.157a6.3,6.3,0,0,1-4.607-7.622,6.385,6.385,0,0,1,9.722-3.716Z" transform="translate(-147.487 -703.239)" fill="#fff"/>
    </g>
    <g id="Group_5959" data-name="Group 5959" transform="translate(97 487.918)">
      <g id="Group_5957" data-name="Group 5957" transform="translate(0 0)">
        <path id="Path_36209" data-name="Path 36209" d="M314.582,812.234a7.328,7.328,0,0,1,7.306,7.306v12.826a7.336,7.336,0,0,1-7.306,7.347H301.269V822.138h6.169v11.406H313.4a2.312,2.312,0,0,0,2.314-2.314V820.717A2.287,2.287,0,0,0,313.4,818.4H301.269v-6.17Z" transform="translate(-301.269 -812.193)" fill="#fff"/>
        <path id="Path_36210" data-name="Path 36210" d="M385.963,812.234v20.538a6.964,6.964,0,0,1-6.942,6.94h-6.778a6.964,6.964,0,0,1-6.94-6.94V812.234h6.17v19a2.338,2.338,0,0,0,2.312,2.314h3.695a2.312,2.312,0,0,0,2.314-2.314v-19Z" transform="translate(-342.001 -812.193)" fill="#fff"/>
        <path id="Path_36211" data-name="Path 36211" d="M441.907,839.712h-6.169v-21.35h-6.291v-6.128h18.71v6.128h-6.25Z" transform="translate(-384.691 -812.193)" fill="#fff"/>
        <path id="Path_36212" data-name="Path 36212" d="M508.9,832.294a7.344,7.344,0,0,1-7.345,7.347H488.24v-6.169h12.176a2.338,2.338,0,0,0,2.312-2.314v-2.922h-4.546a9.959,9.959,0,0,1-9.943-9.945v-6.169h6.169v6.169a3.738,3.738,0,0,0,1.1,2.68,3.914,3.914,0,0,0,2.678,1.1h4.546v-9.944l6.17.041Z" transform="translate(-422.987 -812.122)" fill="#fff"/>
        <path id="Path_36213" data-name="Path 36213" d="M598.2,839.712H592.03V818.4h-6.291v-6.17h18.71v6.17H598.2Z" transform="translate(-486.41 -812.193)" fill="#fff"/>
        <path id="Path_36214" data-name="Path 36214" d="M655.04,818.291v15.181h4.343v6.169H644.528v-6.169h4.343V818.291h-4.343v-6.169h14.855v6.169Z" transform="translate(-524.559 -812.122)" fill="#fff"/>
        <path id="Path_36215" data-name="Path 36215" d="M717.725,812.234v27.478h-6.169v-15.18L705.224,837.2l-6.331-12.663v15.18h-6.17V812.234h6.9l5.6,11.2,5.6-11.2Z" transform="translate(-557.159 -812.193)" fill="#fff"/>
        <path id="Path_36216" data-name="Path 36216" d="M787.555,818.4H774.973v3.734H783.7v6.169h-8.726v5.236h12.581v6.169H768.8V812.234h18.751Z" transform="translate(-605.555 -812.193)" fill="#fff"/>
      </g>
      <g id="Group_5958" data-name="Group 5958" transform="translate(0 32.417)">
        <path id="Path_36217" data-name="Path 36217" d="M307.4,906.406v.941h-5v4.235h4.218v.941H302.4v5.224h-1.135v-11.34Z" transform="translate(-301.269 -906.276)" fill="#fff"/>
        <path id="Path_36218" data-name="Path 36218" d="M392.663,906.406v11.34h-1.135v-11.34Z" transform="translate(-358.683 -906.276)" fill="#fff"/>
        <path id="Path_36219" data-name="Path 36219" d="M473.7,906.406v.941h-3.147v10.4h-1.135v-10.4H466.25v-.941Z" transform="translate(-408.492 -906.276)" fill="#fff"/>
        <path id="Path_36220" data-name="Path 36220" d="M556.677,917.746h-1.135l-6.278-9.539v9.539h-1.136v-11.34h1.136l6.278,9.523v-9.523h1.135Z" transform="translate(-461.727 -906.276)" fill="#fff"/>
        <path id="Path_36221" data-name="Path 36221" d="M636.268,907.3v4.234h4.3v.941h-4.3v4.3h4.786v.941h-5.921V906.362h5.921v.941Z" transform="translate(-518.213 -906.248)" fill="#fff"/>
        <path id="Path_36222" data-name="Path 36222" d="M718.243,917.244a3.22,3.22,0,0,1-1.338-1.087,2.848,2.848,0,0,1-.519-1.558h1.2a2.282,2.282,0,0,0,.73,1.452,2.636,2.636,0,0,0,1.9.625,2.667,2.667,0,0,0,1.825-.592,1.911,1.911,0,0,0,.674-1.5,1.775,1.775,0,0,0-.373-1.177,2.289,2.289,0,0,0-.924-.664,14.266,14.266,0,0,0-1.525-.479,13.318,13.318,0,0,1-1.8-.6,2.856,2.856,0,0,1-1.135-.908,2.692,2.692,0,0,1-.47-1.671,2.771,2.771,0,0,1,.454-1.565,3.044,3.044,0,0,1,1.281-1.079,4.406,4.406,0,0,1,1.9-.389,3.953,3.953,0,0,1,2.539.77,2.9,2.9,0,0,1,1.112,1.987h-1.233a2.038,2.038,0,0,0-.763-1.241,3.015,3.015,0,0,0-3.456,0,1.8,1.8,0,0,0-.681,1.484,1.714,1.714,0,0,0,.373,1.152,2.378,2.378,0,0,0,.933.665,13.939,13.939,0,0,0,1.517.487,13.635,13.635,0,0,1,1.785.608,2.924,2.924,0,0,1,1.152.916,2.665,2.665,0,0,1,.47,1.655,2.923,2.923,0,0,1-.422,1.509,3.077,3.077,0,0,1-1.249,1.151,4.179,4.179,0,0,1-1.98.438A4.7,4.7,0,0,1,718.243,917.244Z" transform="translate(-571.06 -906.05)" fill="#fff"/>
        <path id="Path_36223" data-name="Path 36223" d="M801.637,917.244a3.22,3.22,0,0,1-1.338-1.087,2.845,2.845,0,0,1-.519-1.558h1.2a2.278,2.278,0,0,0,.73,1.452,2.636,2.636,0,0,0,1.9.625,2.667,2.667,0,0,0,1.825-.592,1.912,1.912,0,0,0,.673-1.5,1.775,1.775,0,0,0-.373-1.177,2.294,2.294,0,0,0-.924-.664,14.277,14.277,0,0,0-1.525-.479,13.307,13.307,0,0,1-1.8-.6,2.856,2.856,0,0,1-1.135-.908,2.692,2.692,0,0,1-.47-1.671,2.774,2.774,0,0,1,.454-1.565,3.043,3.043,0,0,1,1.282-1.079,4.406,4.406,0,0,1,1.9-.389,3.953,3.953,0,0,1,2.539.77,2.9,2.9,0,0,1,1.112,1.987h-1.233a2.038,2.038,0,0,0-.763-1.241,3.015,3.015,0,0,0-3.455,0,1.8,1.8,0,0,0-.681,1.484,1.715,1.715,0,0,0,.373,1.152,2.379,2.379,0,0,0,.933.665,13.955,13.955,0,0,0,1.516.487,13.634,13.634,0,0,1,1.785.608,2.928,2.928,0,0,1,1.153.916,2.666,2.666,0,0,1,.47,1.655,2.926,2.926,0,0,1-.421,1.509,3.076,3.076,0,0,1-1.249,1.151,4.177,4.177,0,0,1-1.979.438A4.7,4.7,0,0,1,801.637,917.244Z" transform="translate(-625.258 -906.05)" fill="#fff"/>
      </g>
    </g>
  </g>
</svg>
