<svg xmlns="http://www.w3.org/2000/svg" width="21.808" height="21.5" viewBox="0 0 21.808 21.5">
  <g id="gallery" transform="translate(-1.25 -1.25)">
    <path id="Path_36299" data-name="Path 36299" d="M9,22h6c5,0,7-2,7-7V9c0-5-2-7-7-7H9C4,2,2,4,2,9v6C2,20,4,22,9,22Z" fill="none" stroke="#fff" stroke-linecap="round" stroke-linejoin="round" stroke-width="1.5"/>
    <path id="Path_36300" data-name="Path 36300" d="M9,10A2,2,0,1,0,7,8,2,2,0,0,0,9,10Z" fill="none" stroke="#fff" stroke-linecap="round" stroke-linejoin="round" stroke-width="1.5"/>
    <path id="Path_36301" data-name="Path 36301" d="M2.67,18.95,7.6,15.64a2.253,2.253,0,0,1,2.64.14l.33.29a2.229,2.229,0,0,0,2.82,0l4.16-3.57a2.229,2.229,0,0,1,2.82,0L22,13.9" fill="none" stroke="#fff" stroke-linecap="round" stroke-linejoin="round" stroke-width="1.5"/>
  </g>
</svg>
