<svg xmlns="http://www.w3.org/2000/svg" width="45.917" height="46" viewBox="0 0 45.917 46">
  <g id="people" transform="translate(-1.002 -1)">
    <path id="Path_36285" data-name="Path 36285" d="M21.2,13.351a1.332,1.332,0,0,0-.418,0,5.686,5.686,0,1,1,.418,0Z" transform="translate(15.989 0)" fill="none" stroke="#000" stroke-linecap="round" stroke-linejoin="round" stroke-width="2"/>
    <path id="Path_36286" data-name="Path 36286" d="M17.006,20.367a12.4,12.4,0,0,0,8.667-1.584c3.1-2.068,3.1-5.455,0-7.523A12.473,12.473,0,0,0,16.94,9.7" transform="translate(17.921 8.998)" fill="none" stroke="#000" stroke-linecap="round" stroke-linejoin="round" stroke-width="2"/>
    <path id="Path_36287" data-name="Path 36287" d="M8.957,13.351a1.332,1.332,0,0,1,.418,0,5.686,5.686,0,1,0-.418,0Z" transform="translate(1.773 0)" fill="none" stroke="#000" stroke-linecap="round" stroke-linejoin="round" stroke-width="2"/>
    <path id="Path_36288" data-name="Path 36288" d="M13,20.367a12.4,12.4,0,0,1-8.667-1.584c-3.1-2.068-3.1-5.455,0-7.523A12.473,12.473,0,0,1,13.062,9.7" transform="translate(0 8.998)" fill="none" stroke="#000" stroke-linecap="round" stroke-linejoin="round" stroke-width="2"/>
    <path id="Path_36289" data-name="Path 36289" d="M15.2,20.821a1.332,1.332,0,0,0-.418,0,5.686,5.686,0,1,1,.418,0Z" transform="translate(8.791 8.962)" fill="none" stroke="#000" stroke-linecap="round" stroke-linejoin="round" stroke-width="2"/>
    <path id="Path_36290" data-name="Path 36290" d="M10.359,18.734c-3.1,2.068-3.1,5.455,0,7.523a12.489,12.489,0,0,0,12.8,0c3.1-2.068,3.1-5.455,0-7.523A12.59,12.59,0,0,0,10.359,18.734Z" transform="translate(7.234 17.978)" fill="none" stroke="#000" stroke-linecap="round" stroke-linejoin="round" stroke-width="2"/>
  </g>
</svg>
