<svg xmlns="http://www.w3.org/2000/svg" width="21.51" height="20.62" viewBox="0 0 21.51 20.62">
  <g id="setting-2" transform="translate(-1.25 -1.688)" opacity="0.42">
    <path id="Path_36255" data-name="Path 36255" d="M12,15a3,3,0,1,0-3-3A3,3,0,0,0,12,15Z" fill="none" stroke="#fff" stroke-linecap="round" stroke-linejoin="round" stroke-width="1.5"/>
    <path id="Path_36256" data-name="Path 36256" d="M2,12.88V11.12a1.906,1.906,0,0,1,1.9-1.9c1.81,0,2.55-1.28,1.64-2.85a1.9,1.9,0,0,1,.7-2.59l1.73-.99a1.669,1.669,0,0,1,2.28.6l.11.19c.9,1.57,2.38,1.57,3.29,0l.11-.19a1.669,1.669,0,0,1,2.28-.6l1.73.99a1.9,1.9,0,0,1,.7,2.59c-.91,1.57-.17,2.85,1.64,2.85a1.906,1.906,0,0,1,1.9,1.9v1.76a1.906,1.906,0,0,1-1.9,1.9c-1.81,0-2.55,1.28-1.64,2.85a1.9,1.9,0,0,1-.7,2.59l-1.73.99a1.669,1.669,0,0,1-2.28-.6l-.11-.19c-.9-1.57-2.38-1.57-3.29,0l-.11.19a1.669,1.669,0,0,1-2.28.6l-1.73-.99a1.9,1.9,0,0,1-.7-2.59c.91-1.57.17-2.85-1.64-2.85A1.906,1.906,0,0,1,2,12.88Z" fill="none" stroke="#fff" stroke-linecap="round" stroke-linejoin="round" stroke-width="1.5"/>
  </g>
</svg>
