<svg xmlns="http://www.w3.org/2000/svg" width="19.67" height="21.58" viewBox="0 0 19.67 21.58">
  <g id="user-octagon" transform="translate(-2.16 -1.21)">
    <path id="Path_36302" data-name="Path 36302" d="M21.08,8.58v6.84a3.174,3.174,0,0,1-1.57,2.73l-5.94,3.43a3.163,3.163,0,0,1-3.15,0L4.48,18.15a3.149,3.149,0,0,1-1.57-2.73V8.58A3.174,3.174,0,0,1,4.48,5.85l5.94-3.43a3.163,3.163,0,0,1,3.15,0l5.94,3.43A3.162,3.162,0,0,1,21.08,8.58Z" fill="none" stroke="#fff" stroke-linecap="round" stroke-linejoin="round" stroke-width="1.5"/>
    <path id="Path_36303" data-name="Path 36303" d="M12,11A2.33,2.33,0,1,0,9.67,8.67,2.33,2.33,0,0,0,12,11Z" fill="none" stroke="#fff" stroke-linecap="round" stroke-linejoin="round" stroke-width="1.5"/>
    <path id="Path_36304" data-name="Path 36304" d="M16,16.66c0-1.8-1.79-3.26-4-3.26s-4,1.46-4,3.26" fill="none" stroke="#fff" stroke-linecap="round" stroke-linejoin="round" stroke-width="1.5"/>
  </g>
</svg>
