<svg xmlns="http://www.w3.org/2000/svg" width="22.5" height="13.5" viewBox="0 0 22.5 13.5">
  <g id="weight" transform="translate(-0.75 -5.25)" opacity="0.42">
    <path id="Path_36247" data-name="Path 36247" d="M17.18,18c2.4,0,3-1.35,3-3V9c0-1.65-.6-3-3-3s-3,1.35-3,3v6C14.18,16.65,14.78,18,17.18,18Z" fill="none" stroke="#fff" stroke-linecap="round" stroke-linejoin="round" stroke-width="1.5"/>
    <path id="Path_36248" data-name="Path 36248" d="M6.82,18c-2.4,0-3-1.35-3-3V9c0-1.65.6-3,3-3s3,1.35,3,3v6C9.82,16.65,9.22,18,6.82,18Z" fill="none" stroke="#fff" stroke-linecap="round" stroke-linejoin="round" stroke-width="1.5"/>
    <path id="Path_36249" data-name="Path 36249" d="M9.82,12h4.36" fill="none" stroke="#fff" stroke-linecap="round" stroke-linejoin="round" stroke-width="1.5"/>
    <path id="Path_36250" data-name="Path 36250" d="M22.5,14.5v-5" fill="none" stroke="#fff" stroke-linecap="round" stroke-linejoin="round" stroke-width="1.5"/>
    <path id="Path_36251" data-name="Path 36251" d="M1.5,14.5v-5" fill="none" stroke="#fff" stroke-linecap="round" stroke-linejoin="round" stroke-width="1.5"/>
  </g>
</svg>
