<svg xmlns="http://www.w3.org/2000/svg" width="17" height="10.143" viewBox="0 0 17 10.143">
  <g id="weight" transform="translate(-1 -5.5)">
    <path id="Path_36360" data-name="Path 36360" d="M16.466,15.143a2,2,0,0,0,2.286-2.286V8.286A2,2,0,0,0,16.466,6,2,2,0,0,0,14.18,8.286v4.571A2,2,0,0,0,16.466,15.143Z" transform="translate(-3.019)" fill="none" stroke="#fff" stroke-linecap="round" stroke-linejoin="round" stroke-width="1"/>
    <path id="Path_36361" data-name="Path 36361" d="M6.106,15.143A2,2,0,0,1,3.82,12.857V8.286A2,2,0,0,1,6.106,6,2,2,0,0,1,8.391,8.286v4.571A2,2,0,0,1,6.106,15.143Z" transform="translate(-0.552)" fill="none" stroke="#fff" stroke-linecap="round" stroke-linejoin="round" stroke-width="1"/>
    <path id="Path_36362" data-name="Path 36362" d="M9.82,12h3.322" transform="translate(-1.981 -1.429)" fill="none" stroke="#fff" stroke-linecap="round" stroke-linejoin="round" stroke-width="1"/>
    <path id="Path_36363" data-name="Path 36363" d="M22.5,13.31V9.5" transform="translate(-5 -0.833)" fill="none" stroke="#fff" stroke-linecap="round" stroke-linejoin="round" stroke-width="1"/>
    <path id="Path_36364" data-name="Path 36364" d="M1.5,13.31V9.5" transform="translate(0 -0.833)" fill="none" stroke="#fff" stroke-linecap="round" stroke-linejoin="round" stroke-width="1"/>
  </g>
</svg>
